<?xml version="1.0" encoding="utf-8" standalone="no"?>
<!DOCTYPE svg PUBLIC "-//W3C//DTD SVG 1.1//EN"
  "http://www.w3.org/Graphics/SVG/1.1/DTD/svg11.dtd">
<!-- Created with matplotlib (https://matplotlib.org/) -->
<svg height="401.603281pt" version="1.1" viewBox="0 0 616.165625 401.603281" width="616.165625pt" xmlns="http://www.w3.org/2000/svg" xmlns:xlink="http://www.w3.org/1999/xlink">
 <metadata>
  <rdf:RDF xmlns:cc="http://creativecommons.org/ns#" xmlns:dc="http://purl.org/dc/elements/1.1/" xmlns:rdf="http://www.w3.org/1999/02/22-rdf-syntax-ns#">
   <cc:Work>
    <dc:type rdf:resource="http://purl.org/dc/dcmitype/StillImage"/>
    <dc:date>2021-03-22T13:22:00.875500</dc:date>
    <dc:format>image/svg+xml</dc:format>
    <dc:creator>
     <cc:Agent>
      <dc:title>Matplotlib v3.3.4, https://matplotlib.org/</dc:title>
     </cc:Agent>
    </dc:creator>
   </cc:Work>
  </rdf:RDF>
 </metadata>
 <defs>
  <style type="text/css">*{stroke-linecap:butt;stroke-linejoin:round;}</style>
 </defs>
 <g id="figure_1">
  <g id="patch_1">
   <path d="M 0 401.603281 
L 616.165625 401.603281 
L 616.165625 0 
L 0 0 
z
" style="fill:#ffffff;"/>
  </g>
  <g id="axes_1">
   <g id="patch_2">
    <path d="M 50.965625 360.047031 
L 608.965625 360.047031 
L 608.965625 27.407031 
L 50.965625 27.407031 
z
" style="fill:#ffffff;"/>
   </g>
   <g id="matplotlib.axis_1">
    <g id="xtick_1">
     <g id="line2d_1">
      <path clip-path="url(#p1ae963c55b)" d="M 76.329261 360.047031 
L 76.329261 27.407031 
" style="fill:none;stroke:#b0b0b0;stroke-linecap:square;stroke-width:0.8;"/>
     </g>
     <g id="line2d_2">
      <defs>
       <path d="M 0 0 
L 0 3.5 
" id="m728316d213" style="stroke:#000000;stroke-width:0.8;"/>
      </defs>
      <g>
       <use style="stroke:#000000;stroke-width:0.8;" x="76.329261" xlink:href="#m728316d213" y="360.047031"/>
      </g>
     </g>
     <g id="text_1">
      <!-- 1 -->
      <g transform="translate(73.148011 374.645469)scale(0.1 -0.1)">
       <defs>
        <path d="M 12.40625 8.296875 
L 28.515625 8.296875 
L 28.515625 63.921875 
L 10.984375 60.40625 
L 10.984375 69.390625 
L 28.421875 72.90625 
L 38.28125 72.90625 
L 38.28125 8.296875 
L 54.390625 8.296875 
L 54.390625 0 
L 12.40625 0 
z
" id="DejaVuSans-49"/>
       </defs>
       <use xlink:href="#DejaVuSans-49"/>
      </g>
     </g>
    </g>
    <g id="xtick_2">
     <g id="line2d_3">
      <path clip-path="url(#p1ae963c55b)" d="M 122.444964 360.047031 
L 122.444964 27.407031 
" style="fill:none;stroke:#b0b0b0;stroke-linecap:square;stroke-width:0.8;"/>
     </g>
     <g id="line2d_4">
      <g>
       <use style="stroke:#000000;stroke-width:0.8;" x="122.444964" xlink:href="#m728316d213" y="360.047031"/>
      </g>
     </g>
     <g id="text_2">
      <!-- 2 -->
      <g transform="translate(119.263714 374.645469)scale(0.1 -0.1)">
       <defs>
        <path d="M 19.1875 8.296875 
L 53.609375 8.296875 
L 53.609375 0 
L 7.328125 0 
L 7.328125 8.296875 
Q 12.9375 14.109375 22.625 23.890625 
Q 32.328125 33.6875 34.8125 36.53125 
Q 39.546875 41.84375 41.421875 45.53125 
Q 43.3125 49.21875 43.3125 52.78125 
Q 43.3125 58.59375 39.234375 62.25 
Q 35.15625 65.921875 28.609375 65.921875 
Q 23.96875 65.921875 18.8125 64.3125 
Q 13.671875 62.703125 7.8125 59.421875 
L 7.8125 69.390625 
Q 13.765625 71.78125 18.9375 73 
Q 24.125 74.21875 28.421875 74.21875 
Q 39.75 74.21875 46.484375 68.546875 
Q 53.21875 62.890625 53.21875 53.421875 
Q 53.21875 48.921875 51.53125 44.890625 
Q 49.859375 40.875 45.40625 35.40625 
Q 44.1875 33.984375 37.640625 27.21875 
Q 31.109375 20.453125 19.1875 8.296875 
z
" id="DejaVuSans-50"/>
       </defs>
       <use xlink:href="#DejaVuSans-50"/>
      </g>
     </g>
    </g>
    <g id="xtick_3">
     <g id="line2d_5">
      <path clip-path="url(#p1ae963c55b)" d="M 168.560666 360.047031 
L 168.560666 27.407031 
" style="fill:none;stroke:#b0b0b0;stroke-linecap:square;stroke-width:0.8;"/>
     </g>
     <g id="line2d_6">
      <g>
       <use style="stroke:#000000;stroke-width:0.8;" x="168.560666" xlink:href="#m728316d213" y="360.047031"/>
      </g>
     </g>
     <g id="text_3">
      <!-- 3 -->
      <g transform="translate(165.379416 374.645469)scale(0.1 -0.1)">
       <defs>
        <path d="M 40.578125 39.3125 
Q 47.65625 37.796875 51.625 33 
Q 55.609375 28.21875 55.609375 21.1875 
Q 55.609375 10.40625 48.1875 4.484375 
Q 40.765625 -1.421875 27.09375 -1.421875 
Q 22.515625 -1.421875 17.65625 -0.515625 
Q 12.796875 0.390625 7.625 2.203125 
L 7.625 11.71875 
Q 11.71875 9.328125 16.59375 8.109375 
Q 21.484375 6.890625 26.8125 6.890625 
Q 36.078125 6.890625 40.9375 10.546875 
Q 45.796875 14.203125 45.796875 21.1875 
Q 45.796875 27.640625 41.28125 31.265625 
Q 36.765625 34.90625 28.71875 34.90625 
L 20.21875 34.90625 
L 20.21875 43.015625 
L 29.109375 43.015625 
Q 36.375 43.015625 40.234375 45.921875 
Q 44.09375 48.828125 44.09375 54.296875 
Q 44.09375 59.90625 40.109375 62.90625 
Q 36.140625 65.921875 28.71875 65.921875 
Q 24.65625 65.921875 20.015625 65.03125 
Q 15.375 64.15625 9.8125 62.3125 
L 9.8125 71.09375 
Q 15.4375 72.65625 20.34375 73.4375 
Q 25.25 74.21875 29.59375 74.21875 
Q 40.828125 74.21875 47.359375 69.109375 
Q 53.90625 64.015625 53.90625 55.328125 
Q 53.90625 49.265625 50.4375 45.09375 
Q 46.96875 40.921875 40.578125 39.3125 
z
" id="DejaVuSans-51"/>
       </defs>
       <use xlink:href="#DejaVuSans-51"/>
      </g>
     </g>
    </g>
    <g id="xtick_4">
     <g id="line2d_7">
      <path clip-path="url(#p1ae963c55b)" d="M 214.676369 360.047031 
L 214.676369 27.407031 
" style="fill:none;stroke:#b0b0b0;stroke-linecap:square;stroke-width:0.8;"/>
     </g>
     <g id="line2d_8">
      <g>
       <use style="stroke:#000000;stroke-width:0.8;" x="214.676369" xlink:href="#m728316d213" y="360.047031"/>
      </g>
     </g>
     <g id="text_4">
      <!-- 4 -->
      <g transform="translate(211.495119 374.645469)scale(0.1 -0.1)">
       <defs>
        <path d="M 37.796875 64.3125 
L 12.890625 25.390625 
L 37.796875 25.390625 
z
M 35.203125 72.90625 
L 47.609375 72.90625 
L 47.609375 25.390625 
L 58.015625 25.390625 
L 58.015625 17.1875 
L 47.609375 17.1875 
L 47.609375 0 
L 37.796875 0 
L 37.796875 17.1875 
L 4.890625 17.1875 
L 4.890625 26.703125 
z
" id="DejaVuSans-52"/>
       </defs>
       <use xlink:href="#DejaVuSans-52"/>
      </g>
     </g>
    </g>
    <g id="xtick_5">
     <g id="line2d_9">
      <path clip-path="url(#p1ae963c55b)" d="M 260.792071 360.047031 
L 260.792071 27.407031 
" style="fill:none;stroke:#b0b0b0;stroke-linecap:square;stroke-width:0.8;"/>
     </g>
     <g id="line2d_10">
      <g>
       <use style="stroke:#000000;stroke-width:0.8;" x="260.792071" xlink:href="#m728316d213" y="360.047031"/>
      </g>
     </g>
     <g id="text_5">
      <!-- 5 -->
      <g transform="translate(257.610821 374.645469)scale(0.1 -0.1)">
       <defs>
        <path d="M 10.796875 72.90625 
L 49.515625 72.90625 
L 49.515625 64.59375 
L 19.828125 64.59375 
L 19.828125 46.734375 
Q 21.96875 47.46875 24.109375 47.828125 
Q 26.265625 48.1875 28.421875 48.1875 
Q 40.625 48.1875 47.75 41.5 
Q 54.890625 34.8125 54.890625 23.390625 
Q 54.890625 11.625 47.5625 5.09375 
Q 40.234375 -1.421875 26.90625 -1.421875 
Q 22.3125 -1.421875 17.546875 -0.640625 
Q 12.796875 0.140625 7.71875 1.703125 
L 7.71875 11.625 
Q 12.109375 9.234375 16.796875 8.0625 
Q 21.484375 6.890625 26.703125 6.890625 
Q 35.15625 6.890625 40.078125 11.328125 
Q 45.015625 15.765625 45.015625 23.390625 
Q 45.015625 31 40.078125 35.4375 
Q 35.15625 39.890625 26.703125 39.890625 
Q 22.75 39.890625 18.8125 39.015625 
Q 14.890625 38.140625 10.796875 36.28125 
z
" id="DejaVuSans-53"/>
       </defs>
       <use xlink:href="#DejaVuSans-53"/>
      </g>
     </g>
    </g>
    <g id="xtick_6">
     <g id="line2d_11">
      <path clip-path="url(#p1ae963c55b)" d="M 306.907774 360.047031 
L 306.907774 27.407031 
" style="fill:none;stroke:#b0b0b0;stroke-linecap:square;stroke-width:0.8;"/>
     </g>
     <g id="line2d_12">
      <g>
       <use style="stroke:#000000;stroke-width:0.8;" x="306.907774" xlink:href="#m728316d213" y="360.047031"/>
      </g>
     </g>
     <g id="text_6">
      <!-- 6 -->
      <g transform="translate(303.726524 374.645469)scale(0.1 -0.1)">
       <defs>
        <path d="M 33.015625 40.375 
Q 26.375 40.375 22.484375 35.828125 
Q 18.609375 31.296875 18.609375 23.390625 
Q 18.609375 15.53125 22.484375 10.953125 
Q 26.375 6.390625 33.015625 6.390625 
Q 39.65625 6.390625 43.53125 10.953125 
Q 47.40625 15.53125 47.40625 23.390625 
Q 47.40625 31.296875 43.53125 35.828125 
Q 39.65625 40.375 33.015625 40.375 
z
M 52.59375 71.296875 
L 52.59375 62.3125 
Q 48.875 64.0625 45.09375 64.984375 
Q 41.3125 65.921875 37.59375 65.921875 
Q 27.828125 65.921875 22.671875 59.328125 
Q 17.53125 52.734375 16.796875 39.40625 
Q 19.671875 43.65625 24.015625 45.921875 
Q 28.375 48.1875 33.59375 48.1875 
Q 44.578125 48.1875 50.953125 41.515625 
Q 57.328125 34.859375 57.328125 23.390625 
Q 57.328125 12.15625 50.6875 5.359375 
Q 44.046875 -1.421875 33.015625 -1.421875 
Q 20.359375 -1.421875 13.671875 8.265625 
Q 6.984375 17.96875 6.984375 36.375 
Q 6.984375 53.65625 15.1875 63.9375 
Q 23.390625 74.21875 37.203125 74.21875 
Q 40.921875 74.21875 44.703125 73.484375 
Q 48.484375 72.75 52.59375 71.296875 
z
" id="DejaVuSans-54"/>
       </defs>
       <use xlink:href="#DejaVuSans-54"/>
      </g>
     </g>
    </g>
    <g id="xtick_7">
     <g id="line2d_13">
      <path clip-path="url(#p1ae963c55b)" d="M 353.023476 360.047031 
L 353.023476 27.407031 
" style="fill:none;stroke:#b0b0b0;stroke-linecap:square;stroke-width:0.8;"/>
     </g>
     <g id="line2d_14">
      <g>
       <use style="stroke:#000000;stroke-width:0.8;" x="353.023476" xlink:href="#m728316d213" y="360.047031"/>
      </g>
     </g>
     <g id="text_7">
      <!-- 7 -->
      <g transform="translate(349.842226 374.645469)scale(0.1 -0.1)">
       <defs>
        <path d="M 8.203125 72.90625 
L 55.078125 72.90625 
L 55.078125 68.703125 
L 28.609375 0 
L 18.3125 0 
L 43.21875 64.59375 
L 8.203125 64.59375 
z
" id="DejaVuSans-55"/>
       </defs>
       <use xlink:href="#DejaVuSans-55"/>
      </g>
     </g>
    </g>
    <g id="xtick_8">
     <g id="line2d_15">
      <path clip-path="url(#p1ae963c55b)" d="M 399.139179 360.047031 
L 399.139179 27.407031 
" style="fill:none;stroke:#b0b0b0;stroke-linecap:square;stroke-width:0.8;"/>
     </g>
     <g id="line2d_16">
      <g>
       <use style="stroke:#000000;stroke-width:0.8;" x="399.139179" xlink:href="#m728316d213" y="360.047031"/>
      </g>
     </g>
     <g id="text_8">
      <!-- 8 -->
      <g transform="translate(395.957929 374.645469)scale(0.1 -0.1)">
       <defs>
        <path d="M 31.78125 34.625 
Q 24.75 34.625 20.71875 30.859375 
Q 16.703125 27.09375 16.703125 20.515625 
Q 16.703125 13.921875 20.71875 10.15625 
Q 24.75 6.390625 31.78125 6.390625 
Q 38.8125 6.390625 42.859375 10.171875 
Q 46.921875 13.96875 46.921875 20.515625 
Q 46.921875 27.09375 42.890625 30.859375 
Q 38.875 34.625 31.78125 34.625 
z
M 21.921875 38.8125 
Q 15.578125 40.375 12.03125 44.71875 
Q 8.5 49.078125 8.5 55.328125 
Q 8.5 64.0625 14.71875 69.140625 
Q 20.953125 74.21875 31.78125 74.21875 
Q 42.671875 74.21875 48.875 69.140625 
Q 55.078125 64.0625 55.078125 55.328125 
Q 55.078125 49.078125 51.53125 44.71875 
Q 48 40.375 41.703125 38.8125 
Q 48.828125 37.15625 52.796875 32.3125 
Q 56.78125 27.484375 56.78125 20.515625 
Q 56.78125 9.90625 50.3125 4.234375 
Q 43.84375 -1.421875 31.78125 -1.421875 
Q 19.734375 -1.421875 13.25 4.234375 
Q 6.78125 9.90625 6.78125 20.515625 
Q 6.78125 27.484375 10.78125 32.3125 
Q 14.796875 37.15625 21.921875 38.8125 
z
M 18.3125 54.390625 
Q 18.3125 48.734375 21.84375 45.5625 
Q 25.390625 42.390625 31.78125 42.390625 
Q 38.140625 42.390625 41.71875 45.5625 
Q 45.3125 48.734375 45.3125 54.390625 
Q 45.3125 60.0625 41.71875 63.234375 
Q 38.140625 66.40625 31.78125 66.40625 
Q 25.390625 66.40625 21.84375 63.234375 
Q 18.3125 60.0625 18.3125 54.390625 
z
" id="DejaVuSans-56"/>
       </defs>
       <use xlink:href="#DejaVuSans-56"/>
      </g>
     </g>
    </g>
    <g id="xtick_9">
     <g id="line2d_17">
      <path clip-path="url(#p1ae963c55b)" d="M 445.254881 360.047031 
L 445.254881 27.407031 
" style="fill:none;stroke:#b0b0b0;stroke-linecap:square;stroke-width:0.8;"/>
     </g>
     <g id="line2d_18">
      <g>
       <use style="stroke:#000000;stroke-width:0.8;" x="445.254881" xlink:href="#m728316d213" y="360.047031"/>
      </g>
     </g>
     <g id="text_9">
      <!-- 9 -->
      <g transform="translate(442.073631 374.645469)scale(0.1 -0.1)">
       <defs>
        <path d="M 10.984375 1.515625 
L 10.984375 10.5 
Q 14.703125 8.734375 18.5 7.8125 
Q 22.3125 6.890625 25.984375 6.890625 
Q 35.75 6.890625 40.890625 13.453125 
Q 46.046875 20.015625 46.78125 33.40625 
Q 43.953125 29.203125 39.59375 26.953125 
Q 35.25 24.703125 29.984375 24.703125 
Q 19.046875 24.703125 12.671875 31.3125 
Q 6.296875 37.9375 6.296875 49.421875 
Q 6.296875 60.640625 12.9375 67.421875 
Q 19.578125 74.21875 30.609375 74.21875 
Q 43.265625 74.21875 49.921875 64.515625 
Q 56.59375 54.828125 56.59375 36.375 
Q 56.59375 19.140625 48.40625 8.859375 
Q 40.234375 -1.421875 26.421875 -1.421875 
Q 22.703125 -1.421875 18.890625 -0.6875 
Q 15.09375 0.046875 10.984375 1.515625 
z
M 30.609375 32.421875 
Q 37.25 32.421875 41.125 36.953125 
Q 45.015625 41.5 45.015625 49.421875 
Q 45.015625 57.28125 41.125 61.84375 
Q 37.25 66.40625 30.609375 66.40625 
Q 23.96875 66.40625 20.09375 61.84375 
Q 16.21875 57.28125 16.21875 49.421875 
Q 16.21875 41.5 20.09375 36.953125 
Q 23.96875 32.421875 30.609375 32.421875 
z
" id="DejaVuSans-57"/>
       </defs>
       <use xlink:href="#DejaVuSans-57"/>
      </g>
     </g>
    </g>
    <g id="xtick_10">
     <g id="line2d_19">
      <path clip-path="url(#p1ae963c55b)" d="M 491.370584 360.047031 
L 491.370584 27.407031 
" style="fill:none;stroke:#b0b0b0;stroke-linecap:square;stroke-width:0.8;"/>
     </g>
     <g id="line2d_20">
      <g>
       <use style="stroke:#000000;stroke-width:0.8;" x="491.370584" xlink:href="#m728316d213" y="360.047031"/>
      </g>
     </g>
     <g id="text_10">
      <!-- 10 -->
      <g transform="translate(485.008084 374.645469)scale(0.1 -0.1)">
       <defs>
        <path d="M 31.78125 66.40625 
Q 24.171875 66.40625 20.328125 58.90625 
Q 16.5 51.421875 16.5 36.375 
Q 16.5 21.390625 20.328125 13.890625 
Q 24.171875 6.390625 31.78125 6.390625 
Q 39.453125 6.390625 43.28125 13.890625 
Q 47.125 21.390625 47.125 36.375 
Q 47.125 51.421875 43.28125 58.90625 
Q 39.453125 66.40625 31.78125 66.40625 
z
M 31.78125 74.21875 
Q 44.046875 74.21875 50.515625 64.515625 
Q 56.984375 54.828125 56.984375 36.375 
Q 56.984375 17.96875 50.515625 8.265625 
Q 44.046875 -1.421875 31.78125 -1.421875 
Q 19.53125 -1.421875 13.0625 8.265625 
Q 6.59375 17.96875 6.59375 36.375 
Q 6.59375 54.828125 13.0625 64.515625 
Q 19.53125 74.21875 31.78125 74.21875 
z
" id="DejaVuSans-48"/>
       </defs>
       <use xlink:href="#DejaVuSans-49"/>
       <use x="63.623047" xlink:href="#DejaVuSans-48"/>
      </g>
     </g>
    </g>
    <g id="xtick_11">
     <g id="line2d_21">
      <path clip-path="url(#p1ae963c55b)" d="M 537.486286 360.047031 
L 537.486286 27.407031 
" style="fill:none;stroke:#b0b0b0;stroke-linecap:square;stroke-width:0.8;"/>
     </g>
     <g id="line2d_22">
      <g>
       <use style="stroke:#000000;stroke-width:0.8;" x="537.486286" xlink:href="#m728316d213" y="360.047031"/>
      </g>
     </g>
     <g id="text_11">
      <!-- 11 -->
      <g transform="translate(531.123786 374.645469)scale(0.1 -0.1)">
       <use xlink:href="#DejaVuSans-49"/>
       <use x="63.623047" xlink:href="#DejaVuSans-49"/>
      </g>
     </g>
    </g>
    <g id="xtick_12">
     <g id="line2d_23">
      <path clip-path="url(#p1ae963c55b)" d="M 583.601989 360.047031 
L 583.601989 27.407031 
" style="fill:none;stroke:#b0b0b0;stroke-linecap:square;stroke-width:0.8;"/>
     </g>
     <g id="line2d_24">
      <g>
       <use style="stroke:#000000;stroke-width:0.8;" x="583.601989" xlink:href="#m728316d213" y="360.047031"/>
      </g>
     </g>
     <g id="text_12">
      <!-- 12 -->
      <g transform="translate(577.239489 374.645469)scale(0.1 -0.1)">
       <use xlink:href="#DejaVuSans-49"/>
       <use x="63.623047" xlink:href="#DejaVuSans-50"/>
      </g>
     </g>
    </g>
    <g id="xtick_13">
     <g id="line2d_25">
      <defs>
       <path d="M 0 0 
L 0 2 
" id="maa9ef4d647" style="stroke:#000000;stroke-width:0.6;"/>
      </defs>
      <g>
       <use style="stroke:#000000;stroke-width:0.6;" x="57.88298" xlink:href="#maa9ef4d647" y="360.047031"/>
      </g>
     </g>
    </g>
    <g id="xtick_14">
     <g id="line2d_26">
      <g>
       <use style="stroke:#000000;stroke-width:0.6;" x="67.106121" xlink:href="#maa9ef4d647" y="360.047031"/>
      </g>
     </g>
    </g>
    <g id="xtick_15">
     <g id="line2d_27">
      <g>
       <use style="stroke:#000000;stroke-width:0.6;" x="85.552402" xlink:href="#maa9ef4d647" y="360.047031"/>
      </g>
     </g>
    </g>
    <g id="xtick_16">
     <g id="line2d_28">
      <g>
       <use style="stroke:#000000;stroke-width:0.6;" x="94.775542" xlink:href="#maa9ef4d647" y="360.047031"/>
      </g>
     </g>
    </g>
    <g id="xtick_17">
     <g id="line2d_29">
      <g>
       <use style="stroke:#000000;stroke-width:0.6;" x="103.998683" xlink:href="#maa9ef4d647" y="360.047031"/>
      </g>
     </g>
    </g>
    <g id="xtick_18">
     <g id="line2d_30">
      <g>
       <use style="stroke:#000000;stroke-width:0.6;" x="113.221823" xlink:href="#maa9ef4d647" y="360.047031"/>
      </g>
     </g>
    </g>
    <g id="xtick_19">
     <g id="line2d_31">
      <g>
       <use style="stroke:#000000;stroke-width:0.6;" x="131.668104" xlink:href="#maa9ef4d647" y="360.047031"/>
      </g>
     </g>
    </g>
    <g id="xtick_20">
     <g id="line2d_32">
      <g>
       <use style="stroke:#000000;stroke-width:0.6;" x="140.891245" xlink:href="#maa9ef4d647" y="360.047031"/>
      </g>
     </g>
    </g>
    <g id="xtick_21">
     <g id="line2d_33">
      <g>
       <use style="stroke:#000000;stroke-width:0.6;" x="150.114385" xlink:href="#maa9ef4d647" y="360.047031"/>
      </g>
     </g>
    </g>
    <g id="xtick_22">
     <g id="line2d_34">
      <g>
       <use style="stroke:#000000;stroke-width:0.6;" x="159.337526" xlink:href="#maa9ef4d647" y="360.047031"/>
      </g>
     </g>
    </g>
    <g id="xtick_23">
     <g id="line2d_35">
      <g>
       <use style="stroke:#000000;stroke-width:0.6;" x="177.783807" xlink:href="#maa9ef4d647" y="360.047031"/>
      </g>
     </g>
    </g>
    <g id="xtick_24">
     <g id="line2d_36">
      <g>
       <use style="stroke:#000000;stroke-width:0.6;" x="187.006947" xlink:href="#maa9ef4d647" y="360.047031"/>
      </g>
     </g>
    </g>
    <g id="xtick_25">
     <g id="line2d_37">
      <g>
       <use style="stroke:#000000;stroke-width:0.6;" x="196.230088" xlink:href="#maa9ef4d647" y="360.047031"/>
      </g>
     </g>
    </g>
    <g id="xtick_26">
     <g id="line2d_38">
      <g>
       <use style="stroke:#000000;stroke-width:0.6;" x="205.453228" xlink:href="#maa9ef4d647" y="360.047031"/>
      </g>
     </g>
    </g>
    <g id="xtick_27">
     <g id="line2d_39">
      <g>
       <use style="stroke:#000000;stroke-width:0.6;" x="223.899509" xlink:href="#maa9ef4d647" y="360.047031"/>
      </g>
     </g>
    </g>
    <g id="xtick_28">
     <g id="line2d_40">
      <g>
       <use style="stroke:#000000;stroke-width:0.6;" x="233.12265" xlink:href="#maa9ef4d647" y="360.047031"/>
      </g>
     </g>
    </g>
    <g id="xtick_29">
     <g id="line2d_41">
      <g>
       <use style="stroke:#000000;stroke-width:0.6;" x="242.34579" xlink:href="#maa9ef4d647" y="360.047031"/>
      </g>
     </g>
    </g>
    <g id="xtick_30">
     <g id="line2d_42">
      <g>
       <use style="stroke:#000000;stroke-width:0.6;" x="251.568931" xlink:href="#maa9ef4d647" y="360.047031"/>
      </g>
     </g>
    </g>
    <g id="xtick_31">
     <g id="line2d_43">
      <g>
       <use style="stroke:#000000;stroke-width:0.6;" x="270.015212" xlink:href="#maa9ef4d647" y="360.047031"/>
      </g>
     </g>
    </g>
    <g id="xtick_32">
     <g id="line2d_44">
      <g>
       <use style="stroke:#000000;stroke-width:0.6;" x="279.238352" xlink:href="#maa9ef4d647" y="360.047031"/>
      </g>
     </g>
    </g>
    <g id="xtick_33">
     <g id="line2d_45">
      <g>
       <use style="stroke:#000000;stroke-width:0.6;" x="288.461493" xlink:href="#maa9ef4d647" y="360.047031"/>
      </g>
     </g>
    </g>
    <g id="xtick_34">
     <g id="line2d_46">
      <g>
       <use style="stroke:#000000;stroke-width:0.6;" x="297.684633" xlink:href="#maa9ef4d647" y="360.047031"/>
      </g>
     </g>
    </g>
    <g id="xtick_35">
     <g id="line2d_47">
      <g>
       <use style="stroke:#000000;stroke-width:0.6;" x="316.130914" xlink:href="#maa9ef4d647" y="360.047031"/>
      </g>
     </g>
    </g>
    <g id="xtick_36">
     <g id="line2d_48">
      <g>
       <use style="stroke:#000000;stroke-width:0.6;" x="325.354055" xlink:href="#maa9ef4d647" y="360.047031"/>
      </g>
     </g>
    </g>
    <g id="xtick_37">
     <g id="line2d_49">
      <g>
       <use style="stroke:#000000;stroke-width:0.6;" x="334.577195" xlink:href="#maa9ef4d647" y="360.047031"/>
      </g>
     </g>
    </g>
    <g id="xtick_38">
     <g id="line2d_50">
      <g>
       <use style="stroke:#000000;stroke-width:0.6;" x="343.800336" xlink:href="#maa9ef4d647" y="360.047031"/>
      </g>
     </g>
    </g>
    <g id="xtick_39">
     <g id="line2d_51">
      <g>
       <use style="stroke:#000000;stroke-width:0.6;" x="362.246617" xlink:href="#maa9ef4d647" y="360.047031"/>
      </g>
     </g>
    </g>
    <g id="xtick_40">
     <g id="line2d_52">
      <g>
       <use style="stroke:#000000;stroke-width:0.6;" x="371.469757" xlink:href="#maa9ef4d647" y="360.047031"/>
      </g>
     </g>
    </g>
    <g id="xtick_41">
     <g id="line2d_53">
      <g>
       <use style="stroke:#000000;stroke-width:0.6;" x="380.692898" xlink:href="#maa9ef4d647" y="360.047031"/>
      </g>
     </g>
    </g>
    <g id="xtick_42">
     <g id="line2d_54">
      <g>
       <use style="stroke:#000000;stroke-width:0.6;" x="389.916038" xlink:href="#maa9ef4d647" y="360.047031"/>
      </g>
     </g>
    </g>
    <g id="xtick_43">
     <g id="line2d_55">
      <g>
       <use style="stroke:#000000;stroke-width:0.6;" x="408.362319" xlink:href="#maa9ef4d647" y="360.047031"/>
      </g>
     </g>
    </g>
    <g id="xtick_44">
     <g id="line2d_56">
      <g>
       <use style="stroke:#000000;stroke-width:0.6;" x="417.58546" xlink:href="#maa9ef4d647" y="360.047031"/>
      </g>
     </g>
    </g>
    <g id="xtick_45">
     <g id="line2d_57">
      <g>
       <use style="stroke:#000000;stroke-width:0.6;" x="426.8086" xlink:href="#maa9ef4d647" y="360.047031"/>
      </g>
     </g>
    </g>
    <g id="xtick_46">
     <g id="line2d_58">
      <g>
       <use style="stroke:#000000;stroke-width:0.6;" x="436.031741" xlink:href="#maa9ef4d647" y="360.047031"/>
      </g>
     </g>
    </g>
    <g id="xtick_47">
     <g id="line2d_59">
      <g>
       <use style="stroke:#000000;stroke-width:0.6;" x="454.478022" xlink:href="#maa9ef4d647" y="360.047031"/>
      </g>
     </g>
    </g>
    <g id="xtick_48">
     <g id="line2d_60">
      <g>
       <use style="stroke:#000000;stroke-width:0.6;" x="463.701162" xlink:href="#maa9ef4d647" y="360.047031"/>
      </g>
     </g>
    </g>
    <g id="xtick_49">
     <g id="line2d_61">
      <g>
       <use style="stroke:#000000;stroke-width:0.6;" x="472.924303" xlink:href="#maa9ef4d647" y="360.047031"/>
      </g>
     </g>
    </g>
    <g id="xtick_50">
     <g id="line2d_62">
      <g>
       <use style="stroke:#000000;stroke-width:0.6;" x="482.147443" xlink:href="#maa9ef4d647" y="360.047031"/>
      </g>
     </g>
    </g>
    <g id="xtick_51">
     <g id="line2d_63">
      <g>
       <use style="stroke:#000000;stroke-width:0.6;" x="500.593724" xlink:href="#maa9ef4d647" y="360.047031"/>
      </g>
     </g>
    </g>
    <g id="xtick_52">
     <g id="line2d_64">
      <g>
       <use style="stroke:#000000;stroke-width:0.6;" x="509.816865" xlink:href="#maa9ef4d647" y="360.047031"/>
      </g>
     </g>
    </g>
    <g id="xtick_53">
     <g id="line2d_65">
      <g>
       <use style="stroke:#000000;stroke-width:0.6;" x="519.040005" xlink:href="#maa9ef4d647" y="360.047031"/>
      </g>
     </g>
    </g>
    <g id="xtick_54">
     <g id="line2d_66">
      <g>
       <use style="stroke:#000000;stroke-width:0.6;" x="528.263146" xlink:href="#maa9ef4d647" y="360.047031"/>
      </g>
     </g>
    </g>
    <g id="xtick_55">
     <g id="line2d_67">
      <g>
       <use style="stroke:#000000;stroke-width:0.6;" x="546.709427" xlink:href="#maa9ef4d647" y="360.047031"/>
      </g>
     </g>
    </g>
    <g id="xtick_56">
     <g id="line2d_68">
      <g>
       <use style="stroke:#000000;stroke-width:0.6;" x="555.932567" xlink:href="#maa9ef4d647" y="360.047031"/>
      </g>
     </g>
    </g>
    <g id="xtick_57">
     <g id="line2d_69">
      <g>
       <use style="stroke:#000000;stroke-width:0.6;" x="565.155708" xlink:href="#maa9ef4d647" y="360.047031"/>
      </g>
     </g>
    </g>
    <g id="xtick_58">
     <g id="line2d_70">
      <g>
       <use style="stroke:#000000;stroke-width:0.6;" x="574.378848" xlink:href="#maa9ef4d647" y="360.047031"/>
      </g>
     </g>
    </g>
    <g id="xtick_59">
     <g id="line2d_71">
      <g>
       <use style="stroke:#000000;stroke-width:0.6;" x="592.825129" xlink:href="#maa9ef4d647" y="360.047031"/>
      </g>
     </g>
    </g>
    <g id="xtick_60">
     <g id="line2d_72">
      <g>
       <use style="stroke:#000000;stroke-width:0.6;" x="602.04827" xlink:href="#maa9ef4d647" y="360.047031"/>
      </g>
     </g>
    </g>
    <g id="text_13">
     <!-- Месяц -->
     <g transform="translate(313.414844 392.323594)scale(0.1 -0.1)">
      <defs>
       <path d="M 9.8125 72.90625 
L 24.515625 72.90625 
L 43.109375 23.296875 
L 61.8125 72.90625 
L 76.515625 72.90625 
L 76.515625 0 
L 66.890625 0 
L 66.890625 64.015625 
L 48.09375 14.015625 
L 38.1875 14.015625 
L 19.390625 64.015625 
L 19.390625 0 
L 9.8125 0 
z
" id="DejaVuSans-1052"/>
       <path d="M 56.203125 29.59375 
L 56.203125 25.203125 
L 14.890625 25.203125 
Q 15.484375 15.921875 20.484375 11.0625 
Q 25.484375 6.203125 34.421875 6.203125 
Q 39.59375 6.203125 44.453125 7.46875 
Q 49.3125 8.734375 54.109375 11.28125 
L 54.109375 2.78125 
Q 49.265625 0.734375 44.1875 -0.34375 
Q 39.109375 -1.421875 33.890625 -1.421875 
Q 20.796875 -1.421875 13.15625 6.1875 
Q 5.515625 13.8125 5.515625 26.8125 
Q 5.515625 40.234375 12.765625 48.109375 
Q 20.015625 56 32.328125 56 
Q 43.359375 56 49.78125 48.890625 
Q 56.203125 41.796875 56.203125 29.59375 
z
M 47.21875 32.234375 
Q 47.125 39.59375 43.09375 43.984375 
Q 39.0625 48.390625 32.421875 48.390625 
Q 24.90625 48.390625 20.390625 44.140625 
Q 15.875 39.890625 15.1875 32.171875 
z
" id="DejaVuSans-1077"/>
       <path d="M 48.78125 52.59375 
L 48.78125 44.1875 
Q 44.96875 46.296875 41.140625 47.34375 
Q 37.3125 48.390625 33.40625 48.390625 
Q 24.65625 48.390625 19.8125 42.84375 
Q 14.984375 37.3125 14.984375 27.296875 
Q 14.984375 17.28125 19.8125 11.734375 
Q 24.65625 6.203125 33.40625 6.203125 
Q 37.3125 6.203125 41.140625 7.25 
Q 44.96875 8.296875 48.78125 10.40625 
L 48.78125 2.09375 
Q 45.015625 0.34375 40.984375 -0.53125 
Q 36.96875 -1.421875 32.421875 -1.421875 
Q 20.0625 -1.421875 12.78125 6.34375 
Q 5.515625 14.109375 5.515625 27.296875 
Q 5.515625 40.671875 12.859375 48.328125 
Q 20.21875 56 33.015625 56 
Q 37.15625 56 41.109375 55.140625 
Q 45.0625 54.296875 48.78125 52.59375 
z
" id="DejaVuSans-1089"/>
       <path d="M 18.453125 38.921875 
Q 18.453125 34.859375 21.578125 32.5625 
Q 24.703125 30.28125 30.515625 30.28125 
L 42.625 30.28125 
L 42.625 47.515625 
L 30.515625 47.515625 
Q 24.703125 47.515625 21.578125 45.265625 
Q 18.453125 43.015625 18.453125 38.921875 
z
M 5.671875 0 
L 22.359375 23.96875 
Q 16.703125 25.25 12.9375 28.59375 
Q 9.1875 31.9375 9.1875 38.921875 
Q 9.1875 46.828125 14.421875 50.75 
Q 19.671875 54.6875 30.28125 54.6875 
L 51.65625 54.6875 
L 51.65625 0 
L 42.625 0 
L 42.625 23.09375 
L 31.453125 23.09375 
L 15.328125 0 
z
" id="DejaVuSans-1103"/>
       <path d="M 56.296875 0 
L 9.078125 0 
L 9.078125 54.6875 
L 18.109375 54.6875 
L 18.109375 7.171875 
L 47.265625 7.171875 
L 47.265625 54.6875 
L 56.296875 54.6875 
L 56.296875 7.171875 
L 63.484375 7.171875 
L 63.484375 -13.8125 
L 56.296875 -13.8125 
z
" id="DejaVuSans-1094"/>
      </defs>
      <use xlink:href="#DejaVuSans-1052"/>
      <use x="86.279297" xlink:href="#DejaVuSans-1077"/>
      <use x="147.802734" xlink:href="#DejaVuSans-1089"/>
      <use x="202.783203" xlink:href="#DejaVuSans-1103"/>
      <use x="262.939453" xlink:href="#DejaVuSans-1094"/>
     </g>
    </g>
   </g>
   <g id="matplotlib.axis_2">
    <g id="ytick_1">
     <g id="line2d_73">
      <path clip-path="url(#p1ae963c55b)" d="M 50.965625 344.927031 
L 608.965625 344.927031 
" style="fill:none;stroke:#b0b0b0;stroke-linecap:square;stroke-width:0.8;"/>
     </g>
     <g id="line2d_74">
      <defs>
       <path d="M 0 0 
L -3.5 0 
" id="meb2c676901" style="stroke:#000000;stroke-width:0.8;"/>
      </defs>
      <g>
       <use style="stroke:#000000;stroke-width:0.8;" x="50.965625" xlink:href="#meb2c676901" y="344.927031"/>
      </g>
     </g>
     <g id="text_14">
      <!-- 0 -->
      <g transform="translate(37.603125 348.72625)scale(0.1 -0.1)">
       <use xlink:href="#DejaVuSans-48"/>
      </g>
     </g>
    </g>
    <g id="ytick_2">
     <g id="line2d_75">
      <path clip-path="url(#p1ae963c55b)" d="M 50.965625 302.931697 
L 608.965625 302.931697 
" style="fill:none;stroke:#b0b0b0;stroke-linecap:square;stroke-width:0.8;"/>
     </g>
     <g id="line2d_76">
      <g>
       <use style="stroke:#000000;stroke-width:0.8;" x="50.965625" xlink:href="#meb2c676901" y="302.931697"/>
      </g>
     </g>
     <g id="text_15">
      <!-- 25 -->
      <g transform="translate(31.240625 306.730916)scale(0.1 -0.1)">
       <use xlink:href="#DejaVuSans-50"/>
       <use x="63.623047" xlink:href="#DejaVuSans-53"/>
      </g>
     </g>
    </g>
    <g id="ytick_3">
     <g id="line2d_77">
      <path clip-path="url(#p1ae963c55b)" d="M 50.965625 260.936364 
L 608.965625 260.936364 
" style="fill:none;stroke:#b0b0b0;stroke-linecap:square;stroke-width:0.8;"/>
     </g>
     <g id="line2d_78">
      <g>
       <use style="stroke:#000000;stroke-width:0.8;" x="50.965625" xlink:href="#meb2c676901" y="260.936364"/>
      </g>
     </g>
     <g id="text_16">
      <!-- 50 -->
      <g transform="translate(31.240625 264.735582)scale(0.1 -0.1)">
       <use xlink:href="#DejaVuSans-53"/>
       <use x="63.623047" xlink:href="#DejaVuSans-48"/>
      </g>
     </g>
    </g>
    <g id="ytick_4">
     <g id="line2d_79">
      <path clip-path="url(#p1ae963c55b)" d="M 50.965625 218.94103 
L 608.965625 218.94103 
" style="fill:none;stroke:#b0b0b0;stroke-linecap:square;stroke-width:0.8;"/>
     </g>
     <g id="line2d_80">
      <g>
       <use style="stroke:#000000;stroke-width:0.8;" x="50.965625" xlink:href="#meb2c676901" y="218.94103"/>
      </g>
     </g>
     <g id="text_17">
      <!-- 75 -->
      <g transform="translate(31.240625 222.740248)scale(0.1 -0.1)">
       <use xlink:href="#DejaVuSans-55"/>
       <use x="63.623047" xlink:href="#DejaVuSans-53"/>
      </g>
     </g>
    </g>
    <g id="ytick_5">
     <g id="line2d_81">
      <path clip-path="url(#p1ae963c55b)" d="M 50.965625 176.945696 
L 608.965625 176.945696 
" style="fill:none;stroke:#b0b0b0;stroke-linecap:square;stroke-width:0.8;"/>
     </g>
     <g id="line2d_82">
      <g>
       <use style="stroke:#000000;stroke-width:0.8;" x="50.965625" xlink:href="#meb2c676901" y="176.945696"/>
      </g>
     </g>
     <g id="text_18">
      <!-- 100 -->
      <g transform="translate(24.878125 180.744915)scale(0.1 -0.1)">
       <use xlink:href="#DejaVuSans-49"/>
       <use x="63.623047" xlink:href="#DejaVuSans-48"/>
       <use x="127.246094" xlink:href="#DejaVuSans-48"/>
      </g>
     </g>
    </g>
    <g id="ytick_6">
     <g id="line2d_83">
      <path clip-path="url(#p1ae963c55b)" d="M 50.965625 134.950362 
L 608.965625 134.950362 
" style="fill:none;stroke:#b0b0b0;stroke-linecap:square;stroke-width:0.8;"/>
     </g>
     <g id="line2d_84">
      <g>
       <use style="stroke:#000000;stroke-width:0.8;" x="50.965625" xlink:href="#meb2c676901" y="134.950362"/>
      </g>
     </g>
     <g id="text_19">
      <!-- 125 -->
      <g transform="translate(24.878125 138.749581)scale(0.1 -0.1)">
       <use xlink:href="#DejaVuSans-49"/>
       <use x="63.623047" xlink:href="#DejaVuSans-50"/>
       <use x="127.246094" xlink:href="#DejaVuSans-53"/>
      </g>
     </g>
    </g>
    <g id="ytick_7">
     <g id="line2d_85">
      <path clip-path="url(#p1ae963c55b)" d="M 50.965625 92.955028 
L 608.965625 92.955028 
" style="fill:none;stroke:#b0b0b0;stroke-linecap:square;stroke-width:0.8;"/>
     </g>
     <g id="line2d_86">
      <g>
       <use style="stroke:#000000;stroke-width:0.8;" x="50.965625" xlink:href="#meb2c676901" y="92.955028"/>
      </g>
     </g>
     <g id="text_20">
      <!-- 150 -->
      <g transform="translate(24.878125 96.754247)scale(0.1 -0.1)">
       <use xlink:href="#DejaVuSans-49"/>
       <use x="63.623047" xlink:href="#DejaVuSans-53"/>
       <use x="127.246094" xlink:href="#DejaVuSans-48"/>
      </g>
     </g>
    </g>
    <g id="ytick_8">
     <g id="line2d_87">
      <path clip-path="url(#p1ae963c55b)" d="M 50.965625 50.959694 
L 608.965625 50.959694 
" style="fill:none;stroke:#b0b0b0;stroke-linecap:square;stroke-width:0.8;"/>
     </g>
     <g id="line2d_88">
      <g>
       <use style="stroke:#000000;stroke-width:0.8;" x="50.965625" xlink:href="#meb2c676901" y="50.959694"/>
      </g>
     </g>
     <g id="text_21">
      <!-- 175 -->
      <g transform="translate(24.878125 54.758913)scale(0.1 -0.1)">
       <use xlink:href="#DejaVuSans-49"/>
       <use x="63.623047" xlink:href="#DejaVuSans-55"/>
       <use x="127.246094" xlink:href="#DejaVuSans-53"/>
      </g>
     </g>
    </g>
    <g id="ytick_9">
     <g id="line2d_89">
      <path clip-path="url(#p1ae963c55b)" d="M 50.965625 353.326098 
L 608.965625 353.326098 
" style="fill:none;stroke:#000000;stroke-dasharray:0.8,1.32;stroke-dashoffset:0;stroke-opacity:0.2;stroke-width:0.8;"/>
     </g>
     <g id="line2d_90">
      <defs>
       <path d="M 0 0 
L -2 0 
" id="ma4e2a464d3" style="stroke:#000000;stroke-width:0.6;"/>
      </defs>
      <g>
       <use style="stroke:#000000;stroke-width:0.6;" x="50.965625" xlink:href="#ma4e2a464d3" y="353.326098"/>
      </g>
     </g>
    </g>
    <g id="ytick_10">
     <g id="line2d_91">
      <path clip-path="url(#p1ae963c55b)" d="M 50.965625 336.527964 
L 608.965625 336.527964 
" style="fill:none;stroke:#000000;stroke-dasharray:0.8,1.32;stroke-dashoffset:0;stroke-opacity:0.2;stroke-width:0.8;"/>
     </g>
     <g id="line2d_92">
      <g>
       <use style="stroke:#000000;stroke-width:0.6;" x="50.965625" xlink:href="#ma4e2a464d3" y="336.527964"/>
      </g>
     </g>
    </g>
    <g id="ytick_11">
     <g id="line2d_93">
      <path clip-path="url(#p1ae963c55b)" d="M 50.965625 328.128898 
L 608.965625 328.128898 
" style="fill:none;stroke:#000000;stroke-dasharray:0.8,1.32;stroke-dashoffset:0;stroke-opacity:0.2;stroke-width:0.8;"/>
     </g>
     <g id="line2d_94">
      <g>
       <use style="stroke:#000000;stroke-width:0.6;" x="50.965625" xlink:href="#ma4e2a464d3" y="328.128898"/>
      </g>
     </g>
    </g>
    <g id="ytick_12">
     <g id="line2d_95">
      <path clip-path="url(#p1ae963c55b)" d="M 50.965625 319.729831 
L 608.965625 319.729831 
" style="fill:none;stroke:#000000;stroke-dasharray:0.8,1.32;stroke-dashoffset:0;stroke-opacity:0.2;stroke-width:0.8;"/>
     </g>
     <g id="line2d_96">
      <g>
       <use style="stroke:#000000;stroke-width:0.6;" x="50.965625" xlink:href="#ma4e2a464d3" y="319.729831"/>
      </g>
     </g>
    </g>
    <g id="ytick_13">
     <g id="line2d_97">
      <path clip-path="url(#p1ae963c55b)" d="M 50.965625 311.330764 
L 608.965625 311.330764 
" style="fill:none;stroke:#000000;stroke-dasharray:0.8,1.32;stroke-dashoffset:0;stroke-opacity:0.2;stroke-width:0.8;"/>
     </g>
     <g id="line2d_98">
      <g>
       <use style="stroke:#000000;stroke-width:0.6;" x="50.965625" xlink:href="#ma4e2a464d3" y="311.330764"/>
      </g>
     </g>
    </g>
    <g id="ytick_14">
     <g id="line2d_99">
      <path clip-path="url(#p1ae963c55b)" d="M 50.965625 294.532631 
L 608.965625 294.532631 
" style="fill:none;stroke:#000000;stroke-dasharray:0.8,1.32;stroke-dashoffset:0;stroke-opacity:0.2;stroke-width:0.8;"/>
     </g>
     <g id="line2d_100">
      <g>
       <use style="stroke:#000000;stroke-width:0.6;" x="50.965625" xlink:href="#ma4e2a464d3" y="294.532631"/>
      </g>
     </g>
    </g>
    <g id="ytick_15">
     <g id="line2d_101">
      <path clip-path="url(#p1ae963c55b)" d="M 50.965625 286.133564 
L 608.965625 286.133564 
" style="fill:none;stroke:#000000;stroke-dasharray:0.8,1.32;stroke-dashoffset:0;stroke-opacity:0.2;stroke-width:0.8;"/>
     </g>
     <g id="line2d_102">
      <g>
       <use style="stroke:#000000;stroke-width:0.6;" x="50.965625" xlink:href="#ma4e2a464d3" y="286.133564"/>
      </g>
     </g>
    </g>
    <g id="ytick_16">
     <g id="line2d_103">
      <path clip-path="url(#p1ae963c55b)" d="M 50.965625 277.734497 
L 608.965625 277.734497 
" style="fill:none;stroke:#000000;stroke-dasharray:0.8,1.32;stroke-dashoffset:0;stroke-opacity:0.2;stroke-width:0.8;"/>
     </g>
     <g id="line2d_104">
      <g>
       <use style="stroke:#000000;stroke-width:0.6;" x="50.965625" xlink:href="#ma4e2a464d3" y="277.734497"/>
      </g>
     </g>
    </g>
    <g id="ytick_17">
     <g id="line2d_105">
      <path clip-path="url(#p1ae963c55b)" d="M 50.965625 269.33543 
L 608.965625 269.33543 
" style="fill:none;stroke:#000000;stroke-dasharray:0.8,1.32;stroke-dashoffset:0;stroke-opacity:0.2;stroke-width:0.8;"/>
     </g>
     <g id="line2d_106">
      <g>
       <use style="stroke:#000000;stroke-width:0.6;" x="50.965625" xlink:href="#ma4e2a464d3" y="269.33543"/>
      </g>
     </g>
    </g>
    <g id="ytick_18">
     <g id="line2d_107">
      <path clip-path="url(#p1ae963c55b)" d="M 50.965625 252.537297 
L 608.965625 252.537297 
" style="fill:none;stroke:#000000;stroke-dasharray:0.8,1.32;stroke-dashoffset:0;stroke-opacity:0.2;stroke-width:0.8;"/>
     </g>
     <g id="line2d_108">
      <g>
       <use style="stroke:#000000;stroke-width:0.6;" x="50.965625" xlink:href="#ma4e2a464d3" y="252.537297"/>
      </g>
     </g>
    </g>
    <g id="ytick_19">
     <g id="line2d_109">
      <path clip-path="url(#p1ae963c55b)" d="M 50.965625 244.13823 
L 608.965625 244.13823 
" style="fill:none;stroke:#000000;stroke-dasharray:0.8,1.32;stroke-dashoffset:0;stroke-opacity:0.2;stroke-width:0.8;"/>
     </g>
     <g id="line2d_110">
      <g>
       <use style="stroke:#000000;stroke-width:0.6;" x="50.965625" xlink:href="#ma4e2a464d3" y="244.13823"/>
      </g>
     </g>
    </g>
    <g id="ytick_20">
     <g id="line2d_111">
      <path clip-path="url(#p1ae963c55b)" d="M 50.965625 235.739163 
L 608.965625 235.739163 
" style="fill:none;stroke:#000000;stroke-dasharray:0.8,1.32;stroke-dashoffset:0;stroke-opacity:0.2;stroke-width:0.8;"/>
     </g>
     <g id="line2d_112">
      <g>
       <use style="stroke:#000000;stroke-width:0.6;" x="50.965625" xlink:href="#ma4e2a464d3" y="235.739163"/>
      </g>
     </g>
    </g>
    <g id="ytick_21">
     <g id="line2d_113">
      <path clip-path="url(#p1ae963c55b)" d="M 50.965625 227.340096 
L 608.965625 227.340096 
" style="fill:none;stroke:#000000;stroke-dasharray:0.8,1.32;stroke-dashoffset:0;stroke-opacity:0.2;stroke-width:0.8;"/>
     </g>
     <g id="line2d_114">
      <g>
       <use style="stroke:#000000;stroke-width:0.6;" x="50.965625" xlink:href="#ma4e2a464d3" y="227.340096"/>
      </g>
     </g>
    </g>
    <g id="ytick_22">
     <g id="line2d_115">
      <path clip-path="url(#p1ae963c55b)" d="M 50.965625 210.541963 
L 608.965625 210.541963 
" style="fill:none;stroke:#000000;stroke-dasharray:0.8,1.32;stroke-dashoffset:0;stroke-opacity:0.2;stroke-width:0.8;"/>
     </g>
     <g id="line2d_116">
      <g>
       <use style="stroke:#000000;stroke-width:0.6;" x="50.965625" xlink:href="#ma4e2a464d3" y="210.541963"/>
      </g>
     </g>
    </g>
    <g id="ytick_23">
     <g id="line2d_117">
      <path clip-path="url(#p1ae963c55b)" d="M 50.965625 202.142896 
L 608.965625 202.142896 
" style="fill:none;stroke:#000000;stroke-dasharray:0.8,1.32;stroke-dashoffset:0;stroke-opacity:0.2;stroke-width:0.8;"/>
     </g>
     <g id="line2d_118">
      <g>
       <use style="stroke:#000000;stroke-width:0.6;" x="50.965625" xlink:href="#ma4e2a464d3" y="202.142896"/>
      </g>
     </g>
    </g>
    <g id="ytick_24">
     <g id="line2d_119">
      <path clip-path="url(#p1ae963c55b)" d="M 50.965625 193.743829 
L 608.965625 193.743829 
" style="fill:none;stroke:#000000;stroke-dasharray:0.8,1.32;stroke-dashoffset:0;stroke-opacity:0.2;stroke-width:0.8;"/>
     </g>
     <g id="line2d_120">
      <g>
       <use style="stroke:#000000;stroke-width:0.6;" x="50.965625" xlink:href="#ma4e2a464d3" y="193.743829"/>
      </g>
     </g>
    </g>
    <g id="ytick_25">
     <g id="line2d_121">
      <path clip-path="url(#p1ae963c55b)" d="M 50.965625 185.344763 
L 608.965625 185.344763 
" style="fill:none;stroke:#000000;stroke-dasharray:0.8,1.32;stroke-dashoffset:0;stroke-opacity:0.2;stroke-width:0.8;"/>
     </g>
     <g id="line2d_122">
      <g>
       <use style="stroke:#000000;stroke-width:0.6;" x="50.965625" xlink:href="#ma4e2a464d3" y="185.344763"/>
      </g>
     </g>
    </g>
    <g id="ytick_26">
     <g id="line2d_123">
      <path clip-path="url(#p1ae963c55b)" d="M 50.965625 168.546629 
L 608.965625 168.546629 
" style="fill:none;stroke:#000000;stroke-dasharray:0.8,1.32;stroke-dashoffset:0;stroke-opacity:0.2;stroke-width:0.8;"/>
     </g>
     <g id="line2d_124">
      <g>
       <use style="stroke:#000000;stroke-width:0.6;" x="50.965625" xlink:href="#ma4e2a464d3" y="168.546629"/>
      </g>
     </g>
    </g>
    <g id="ytick_27">
     <g id="line2d_125">
      <path clip-path="url(#p1ae963c55b)" d="M 50.965625 160.147562 
L 608.965625 160.147562 
" style="fill:none;stroke:#000000;stroke-dasharray:0.8,1.32;stroke-dashoffset:0;stroke-opacity:0.2;stroke-width:0.8;"/>
     </g>
     <g id="line2d_126">
      <g>
       <use style="stroke:#000000;stroke-width:0.6;" x="50.965625" xlink:href="#ma4e2a464d3" y="160.147562"/>
      </g>
     </g>
    </g>
    <g id="ytick_28">
     <g id="line2d_127">
      <path clip-path="url(#p1ae963c55b)" d="M 50.965625 151.748496 
L 608.965625 151.748496 
" style="fill:none;stroke:#000000;stroke-dasharray:0.8,1.32;stroke-dashoffset:0;stroke-opacity:0.2;stroke-width:0.8;"/>
     </g>
     <g id="line2d_128">
      <g>
       <use style="stroke:#000000;stroke-width:0.6;" x="50.965625" xlink:href="#ma4e2a464d3" y="151.748496"/>
      </g>
     </g>
    </g>
    <g id="ytick_29">
     <g id="line2d_129">
      <path clip-path="url(#p1ae963c55b)" d="M 50.965625 143.349429 
L 608.965625 143.349429 
" style="fill:none;stroke:#000000;stroke-dasharray:0.8,1.32;stroke-dashoffset:0;stroke-opacity:0.2;stroke-width:0.8;"/>
     </g>
     <g id="line2d_130">
      <g>
       <use style="stroke:#000000;stroke-width:0.6;" x="50.965625" xlink:href="#ma4e2a464d3" y="143.349429"/>
      </g>
     </g>
    </g>
    <g id="ytick_30">
     <g id="line2d_131">
      <path clip-path="url(#p1ae963c55b)" d="M 50.965625 126.551295 
L 608.965625 126.551295 
" style="fill:none;stroke:#000000;stroke-dasharray:0.8,1.32;stroke-dashoffset:0;stroke-opacity:0.2;stroke-width:0.8;"/>
     </g>
     <g id="line2d_132">
      <g>
       <use style="stroke:#000000;stroke-width:0.6;" x="50.965625" xlink:href="#ma4e2a464d3" y="126.551295"/>
      </g>
     </g>
    </g>
    <g id="ytick_31">
     <g id="line2d_133">
      <path clip-path="url(#p1ae963c55b)" d="M 50.965625 118.152228 
L 608.965625 118.152228 
" style="fill:none;stroke:#000000;stroke-dasharray:0.8,1.32;stroke-dashoffset:0;stroke-opacity:0.2;stroke-width:0.8;"/>
     </g>
     <g id="line2d_134">
      <g>
       <use style="stroke:#000000;stroke-width:0.6;" x="50.965625" xlink:href="#ma4e2a464d3" y="118.152228"/>
      </g>
     </g>
    </g>
    <g id="ytick_32">
     <g id="line2d_135">
      <path clip-path="url(#p1ae963c55b)" d="M 50.965625 109.753162 
L 608.965625 109.753162 
" style="fill:none;stroke:#000000;stroke-dasharray:0.8,1.32;stroke-dashoffset:0;stroke-opacity:0.2;stroke-width:0.8;"/>
     </g>
     <g id="line2d_136">
      <g>
       <use style="stroke:#000000;stroke-width:0.6;" x="50.965625" xlink:href="#ma4e2a464d3" y="109.753162"/>
      </g>
     </g>
    </g>
    <g id="ytick_33">
     <g id="line2d_137">
      <path clip-path="url(#p1ae963c55b)" d="M 50.965625 101.354095 
L 608.965625 101.354095 
" style="fill:none;stroke:#000000;stroke-dasharray:0.8,1.32;stroke-dashoffset:0;stroke-opacity:0.2;stroke-width:0.8;"/>
     </g>
     <g id="line2d_138">
      <g>
       <use style="stroke:#000000;stroke-width:0.6;" x="50.965625" xlink:href="#ma4e2a464d3" y="101.354095"/>
      </g>
     </g>
    </g>
    <g id="ytick_34">
     <g id="line2d_139">
      <path clip-path="url(#p1ae963c55b)" d="M 50.965625 84.555961 
L 608.965625 84.555961 
" style="fill:none;stroke:#000000;stroke-dasharray:0.8,1.32;stroke-dashoffset:0;stroke-opacity:0.2;stroke-width:0.8;"/>
     </g>
     <g id="line2d_140">
      <g>
       <use style="stroke:#000000;stroke-width:0.6;" x="50.965625" xlink:href="#ma4e2a464d3" y="84.555961"/>
      </g>
     </g>
    </g>
    <g id="ytick_35">
     <g id="line2d_141">
      <path clip-path="url(#p1ae963c55b)" d="M 50.965625 76.156895 
L 608.965625 76.156895 
" style="fill:none;stroke:#000000;stroke-dasharray:0.8,1.32;stroke-dashoffset:0;stroke-opacity:0.2;stroke-width:0.8;"/>
     </g>
     <g id="line2d_142">
      <g>
       <use style="stroke:#000000;stroke-width:0.6;" x="50.965625" xlink:href="#ma4e2a464d3" y="76.156895"/>
      </g>
     </g>
    </g>
    <g id="ytick_36">
     <g id="line2d_143">
      <path clip-path="url(#p1ae963c55b)" d="M 50.965625 67.757828 
L 608.965625 67.757828 
" style="fill:none;stroke:#000000;stroke-dasharray:0.8,1.32;stroke-dashoffset:0;stroke-opacity:0.2;stroke-width:0.8;"/>
     </g>
     <g id="line2d_144">
      <g>
       <use style="stroke:#000000;stroke-width:0.6;" x="50.965625" xlink:href="#ma4e2a464d3" y="67.757828"/>
      </g>
     </g>
    </g>
    <g id="ytick_37">
     <g id="line2d_145">
      <path clip-path="url(#p1ae963c55b)" d="M 50.965625 59.358761 
L 608.965625 59.358761 
" style="fill:none;stroke:#000000;stroke-dasharray:0.8,1.32;stroke-dashoffset:0;stroke-opacity:0.2;stroke-width:0.8;"/>
     </g>
     <g id="line2d_146">
      <g>
       <use style="stroke:#000000;stroke-width:0.6;" x="50.965625" xlink:href="#ma4e2a464d3" y="59.358761"/>
      </g>
     </g>
    </g>
    <g id="ytick_38">
     <g id="line2d_147">
      <path clip-path="url(#p1ae963c55b)" d="M 50.965625 42.560628 
L 608.965625 42.560628 
" style="fill:none;stroke:#000000;stroke-dasharray:0.8,1.32;stroke-dashoffset:0;stroke-opacity:0.2;stroke-width:0.8;"/>
     </g>
     <g id="line2d_148">
      <g>
       <use style="stroke:#000000;stroke-width:0.6;" x="50.965625" xlink:href="#ma4e2a464d3" y="42.560628"/>
      </g>
     </g>
    </g>
    <g id="ytick_39">
     <g id="line2d_149">
      <path clip-path="url(#p1ae963c55b)" d="M 50.965625 34.161561 
L 608.965625 34.161561 
" style="fill:none;stroke:#000000;stroke-dasharray:0.8,1.32;stroke-dashoffset:0;stroke-opacity:0.2;stroke-width:0.8;"/>
     </g>
     <g id="line2d_150">
      <g>
       <use style="stroke:#000000;stroke-width:0.6;" x="50.965625" xlink:href="#ma4e2a464d3" y="34.161561"/>
      </g>
     </g>
    </g>
    <g id="text_22">
     <!-- Энергия -->
     <g transform="translate(14.798438 215.622344)rotate(-90)scale(0.1 -0.1)">
      <defs>
       <path d="M 5.421875 15.921875 
Q 15.71875 6.6875 28.21875 6.6875 
Q 41.109375 6.6875 46.921875 13.625 
Q 52.734375 20.5625 53.8125 32.234375 
L 14.84375 32.234375 
L 14.84375 40.53125 
L 53.8125 40.53125 
Q 52.734375 52.203125 46.921875 59.15625 
Q 41.109375 66.109375 28.21875 66.109375 
Q 15.71875 66.109375 5.421875 56.890625 
L 5.421875 67.28125 
Q 15.578125 74.21875 28.8125 74.21875 
Q 45.171875 74.21875 54.6875 64.078125 
Q 64.203125 53.953125 64.203125 36.421875 
Q 64.203125 18.84375 54.6875 8.703125 
Q 45.171875 -1.421875 28.8125 -1.421875 
Q 15.765625 -1.421875 5.421875 5.609375 
z
" id="DejaVuSans-1069"/>
       <path d="M 9.078125 54.6875 
L 18.109375 54.6875 
L 18.109375 32.375 
L 47.265625 32.375 
L 47.265625 54.6875 
L 56.296875 54.6875 
L 56.296875 0 
L 47.265625 0 
L 47.265625 25.203125 
L 18.109375 25.203125 
L 18.109375 0 
L 9.078125 0 
z
" id="DejaVuSans-1085"/>
       <path d="M 18.109375 8.203125 
L 18.109375 -20.796875 
L 9.078125 -20.796875 
L 9.078125 54.6875 
L 18.109375 54.6875 
L 18.109375 46.390625 
Q 20.953125 51.265625 25.265625 53.625 
Q 29.59375 56 35.59375 56 
Q 45.5625 56 51.78125 48.09375 
Q 58.015625 40.1875 58.015625 27.296875 
Q 58.015625 14.40625 51.78125 6.484375 
Q 45.5625 -1.421875 35.59375 -1.421875 
Q 29.59375 -1.421875 25.265625 0.953125 
Q 20.953125 3.328125 18.109375 8.203125 
z
M 48.6875 27.296875 
Q 48.6875 37.203125 44.609375 42.84375 
Q 40.53125 48.484375 33.40625 48.484375 
Q 26.265625 48.484375 22.1875 42.84375 
Q 18.109375 37.203125 18.109375 27.296875 
Q 18.109375 17.390625 22.1875 11.75 
Q 26.265625 6.109375 33.40625 6.109375 
Q 40.53125 6.109375 44.609375 11.75 
Q 48.6875 17.390625 48.6875 27.296875 
z
" id="DejaVuSans-1088"/>
       <path d="M 9.078125 0 
L 9.078125 54.6875 
L 47.65625 54.6875 
L 47.65625 47.515625 
L 18.109375 47.515625 
L 18.109375 0 
z
" id="DejaVuSans-1075"/>
       <path d="M 55.90625 54.6875 
L 55.90625 0 
L 46.96875 0 
L 46.96875 43.890625 
L 20.609375 0 
L 9.078125 0 
L 9.078125 54.6875 
L 18.015625 54.6875 
L 18.015625 10.890625 
L 44.34375 54.6875 
z
" id="DejaVuSans-1080"/>
      </defs>
      <use xlink:href="#DejaVuSans-1069"/>
      <use x="69.824219" xlink:href="#DejaVuSans-1085"/>
      <use x="135.205078" xlink:href="#DejaVuSans-1077"/>
      <use x="196.728516" xlink:href="#DejaVuSans-1088"/>
      <use x="260.205078" xlink:href="#DejaVuSans-1075"/>
      <use x="312.744141" xlink:href="#DejaVuSans-1080"/>
      <use x="377.734375" xlink:href="#DejaVuSans-1103"/>
     </g>
    </g>
   </g>
   <g id="line2d_151">
    <path clip-path="url(#p1ae963c55b)" d="M 76.329261 340.761094 
L 122.444964 318.11721 
L 168.560666 232.967471 
L 214.676369 127.088835 
L 260.792071 58.518854 
L 306.907774 42.527031 
L 353.023476 68.681725 
L 399.139179 146.406689 
L 445.254881 245.650062 
L 491.370584 301.705434 
L 537.486286 336.863927 
L 583.601989 344.927031 
" style="fill:none;stroke:#1f77b4;stroke-linecap:square;stroke-width:2;"/>
    <defs>
     <path d="M 0 2.5 
C 0.663008 2.5 1.29895 2.236584 1.767767 1.767767 
C 2.236584 1.29895 2.5 0.663008 2.5 0 
C 2.5 -0.663008 2.236584 -1.29895 1.767767 -1.767767 
C 1.29895 -2.236584 0.663008 -2.5 0 -2.5 
C -0.663008 -2.5 -1.29895 -2.236584 -1.767767 -1.767767 
C -2.236584 -1.29895 -2.5 -0.663008 -2.5 0 
C -2.5 0.663008 -2.236584 1.29895 -1.767767 1.767767 
C -1.29895 2.236584 -0.663008 2.5 0 2.5 
z
" id="m1119d026af" style="stroke:#000000;"/>
    </defs>
    <g clip-path="url(#p1ae963c55b)">
     <use style="fill:#1f77b4;stroke:#000000;" x="76.329261" xlink:href="#m1119d026af" y="340.761094"/>
     <use style="fill:#1f77b4;stroke:#000000;" x="122.444964" xlink:href="#m1119d026af" y="318.11721"/>
     <use style="fill:#1f77b4;stroke:#000000;" x="168.560666" xlink:href="#m1119d026af" y="232.967471"/>
     <use style="fill:#1f77b4;stroke:#000000;" x="214.676369" xlink:href="#m1119d026af" y="127.088835"/>
     <use style="fill:#1f77b4;stroke:#000000;" x="260.792071" xlink:href="#m1119d026af" y="58.518854"/>
     <use style="fill:#1f77b4;stroke:#000000;" x="306.907774" xlink:href="#m1119d026af" y="42.527031"/>
     <use style="fill:#1f77b4;stroke:#000000;" x="353.023476" xlink:href="#m1119d026af" y="68.681725"/>
     <use style="fill:#1f77b4;stroke:#000000;" x="399.139179" xlink:href="#m1119d026af" y="146.406689"/>
     <use style="fill:#1f77b4;stroke:#000000;" x="445.254881" xlink:href="#m1119d026af" y="245.650062"/>
     <use style="fill:#1f77b4;stroke:#000000;" x="491.370584" xlink:href="#m1119d026af" y="301.705434"/>
     <use style="fill:#1f77b4;stroke:#000000;" x="537.486286" xlink:href="#m1119d026af" y="336.863927"/>
     <use style="fill:#1f77b4;stroke:#000000;" x="583.601989" xlink:href="#m1119d026af" y="344.927031"/>
    </g>
   </g>
   <g id="patch_3">
    <path d="M 50.965625 360.047031 
L 50.965625 27.407031 
" style="fill:none;stroke:#000000;stroke-linecap:square;stroke-linejoin:miter;stroke-width:0.8;"/>
   </g>
   <g id="patch_4">
    <path d="M 608.965625 360.047031 
L 608.965625 27.407031 
" style="fill:none;stroke:#000000;stroke-linecap:square;stroke-linejoin:miter;stroke-width:0.8;"/>
   </g>
   <g id="patch_5">
    <path d="M 50.965625 360.047031 
L 608.965625 360.047031 
" style="fill:none;stroke:#000000;stroke-linecap:square;stroke-linejoin:miter;stroke-width:0.8;"/>
   </g>
   <g id="patch_6">
    <path d="M 50.965625 27.407031 
L 608.965625 27.407031 
" style="fill:none;stroke:#000000;stroke-linecap:square;stroke-linejoin:miter;stroke-width:0.8;"/>
   </g>
   <g id="text_23">
    <!-- Полученная энергия на наклонной поверхности за год -->
    <g transform="translate(134.305469 17.407031)scale(0.13 -0.13)">
     <defs>
      <path d="M 6.6875 72.90625 
L 53.515625 72.90625 
L 53.515625 0 
L 43.609375 0 
L 43.609375 64.59375 
L 16.609375 64.59375 
L 16.609375 0 
L 6.6875 0 
z
" id="DejaVuSansMono-1055"/>
      <path d="M 30.078125 48.390625 
Q 23.25 48.390625 19.734375 43.0625 
Q 16.21875 37.75 16.21875 27.296875 
Q 16.21875 16.890625 19.734375 11.546875 
Q 23.25 6.203125 30.078125 6.203125 
Q 36.96875 6.203125 40.484375 11.546875 
Q 44 16.890625 44 27.296875 
Q 44 37.75 40.484375 43.0625 
Q 36.96875 48.390625 30.078125 48.390625 
z
M 30.078125 56 
Q 41.453125 56 47.484375 48.625 
Q 53.515625 41.265625 53.515625 27.296875 
Q 53.515625 13.28125 47.5 5.921875 
Q 41.5 -1.421875 30.078125 -1.421875 
Q 18.703125 -1.421875 12.6875 5.921875 
Q 6.6875 13.28125 6.6875 27.296875 
Q 6.6875 41.265625 12.6875 48.625 
Q 18.703125 56 30.078125 56 
z
" id="DejaVuSansMono-1086"/>
      <path d="M 12.9375 54.6875 
L 51.265625 54.6875 
L 51.265625 0 
L 42.28125 0 
L 42.28125 47.359375 
L 21.921875 47.359375 
L 21.921875 35.40625 
Q 21.921875 26.171875 21.265625 18.765625 
Q 20.609375 11.375 16.921875 5.6875 
Q 13.234375 0 4.15625 0 
L 1.46875 0 
L 1.46875 7.328125 
L 3.171875 7.328125 
Q 7.328125 7.328125 9.625 10.203125 
Q 11.921875 13.09375 12.421875 19.921875 
Q 12.9375 26.765625 12.9375 35.25 
z
" id="DejaVuSansMono-1083"/>
      <path d="M 41.890625 17.578125 
Q 39.65625 11.859375 36.1875 2.546875 
Q 31.34375 -10.359375 29.6875 -13.1875 
Q 27.4375 -17 24.0625 -18.890625 
Q 20.703125 -20.796875 16.21875 -20.796875 
L 8.984375 -20.796875 
L 8.984375 -13.28125 
L 14.3125 -13.28125 
Q 18.265625 -13.28125 20.5 -10.984375 
Q 22.75 -8.6875 26.21875 0.875 
L 5.078125 54.6875 
L 14.59375 54.6875 
L 30.8125 11.921875 
L 46.78125 54.6875 
L 56.296875 54.6875 
z
" id="DejaVuSansMono-1091"/>
      <path d="M 9.515625 36.859375 
L 9.515625 54.78125 
L 18.5 54.78125 
L 18.5 36.859375 
Q 18.5 31.984375 21.109375 29.703125 
Q 23.734375 27.4375 29.109375 27.4375 
Q 33.40625 27.4375 36.1875 27.921875 
Q 38.96875 28.421875 42.328125 30.328125 
L 42.328125 54.78125 
L 51.3125 54.78125 
L 51.3125 0 
L 42.328125 0 
L 42.328125 22.75 
Q 39.75 21.734375 36.328125 20.671875 
Q 32.90625 19.625 26.125 19.625 
Q 19.28125 19.625 14.390625 23.609375 
Q 9.515625 27.59375 9.515625 36.859375 
z
" id="DejaVuSansMono-1095"/>
      <path d="M 54.296875 29.59375 
L 54.296875 25.203125 
L 15.375 25.203125 
L 15.375 24.90625 
Q 15.375 15.96875 20.03125 11.078125 
Q 24.703125 6.203125 33.203125 6.203125 
Q 37.5 6.203125 42.1875 7.5625 
Q 46.875 8.9375 52.203125 11.71875 
L 52.203125 2.78125 
Q 47.078125 0.6875 42.3125 -0.359375 
Q 37.546875 -1.421875 33.109375 -1.421875 
Q 20.359375 -1.421875 13.171875 6.21875 
Q 6 13.875 6 27.296875 
Q 6 40.375 13.03125 48.1875 
Q 20.0625 56 31.78125 56 
Q 42.234375 56 48.265625 48.921875 
Q 54.296875 41.84375 54.296875 29.59375 
z
M 45.3125 32.234375 
Q 45.125 40.140625 41.578125 44.265625 
Q 38.03125 48.390625 31.390625 48.390625 
Q 24.90625 48.390625 20.703125 44.09375 
Q 16.5 39.796875 15.71875 32.171875 
z
" id="DejaVuSansMono-1077"/>
      <path d="M 42.28125 25.140625 
L 18.5 25.140625 
L 18.5 0 
L 9.515625 0 
L 9.515625 54.6875 
L 18.5 54.6875 
L 18.5 32.46875 
L 42.28125 32.46875 
L 42.28125 54.6875 
L 51.265625 54.6875 
L 51.265625 0 
L 42.28125 0 
z
" id="DejaVuSansMono-1085"/>
      <path d="M 34.28125 27.484375 
L 31.296875 27.484375 
Q 23.4375 27.484375 19.453125 24.71875 
Q 15.484375 21.96875 15.484375 16.5 
Q 15.484375 11.578125 18.453125 8.84375 
Q 21.4375 6.109375 26.703125 6.109375 
Q 34.125 6.109375 38.375 11.25 
Q 42.625 16.40625 42.671875 25.484375 
L 42.671875 27.484375 
z
M 51.703125 31.203125 
L 51.703125 0 
L 42.671875 0 
L 42.671875 8.109375 
Q 39.796875 3.21875 35.421875 0.890625 
Q 31.0625 -1.421875 24.8125 -1.421875 
Q 16.453125 -1.421875 11.46875 3.296875 
Q 6.5 8.015625 6.5 15.921875 
Q 6.5 25.046875 12.625 29.78125 
Q 18.75 34.515625 30.609375 34.515625 
L 42.671875 34.515625 
L 42.671875 35.9375 
Q 42.625 42.484375 39.34375 45.4375 
Q 36.078125 48.390625 28.90625 48.390625 
Q 24.3125 48.390625 19.625 47.0625 
Q 14.9375 45.75 10.5 43.21875 
L 10.5 52.203125 
Q 15.484375 54.109375 20.046875 55.046875 
Q 24.609375 56 28.90625 56 
Q 35.6875 56 40.5 54 
Q 45.3125 52 48.296875 48 
Q 50.140625 45.5625 50.921875 41.96875 
Q 51.703125 38.375 51.703125 31.203125 
z
" id="DejaVuSansMono-1072"/>
      <path d="M 19.671875 38.421875 
Q 19.671875 33.6875 22.453125 31.609375 
Q 25.25 29.546875 27.9375 29.546875 
L 39.0625 29.546875 
L 39.0625 47.359375 
L 27.984375 47.359375 
Q 25.25 47.359375 22.453125 45.265625 
Q 19.671875 43.171875 19.671875 38.421875 
z
M 8.203125 0 
L 21.484375 23.390625 
Q 18.890625 24.46875 14.734375 27.640625 
Q 10.59375 30.8125 10.59375 38.96875 
Q 10.59375 47.171875 15.96875 50.921875 
Q 21.34375 54.6875 28.65625 54.6875 
L 48.046875 54.6875 
L 48.046875 0 
L 39.0625 0 
L 39.0625 22.21875 
L 29.640625 22.21875 
L 17.046875 0 
z
" id="DejaVuSansMono-1103"/>
      <path id="DejaVuSansMono-32"/>
      <path d="M 9.515625 2.78125 
L 9.515625 12.109375 
Q 12.703125 9.078125 16.40625 7.640625 
Q 20.125 6.203125 24.8125 6.203125 
Q 33.203125 6.203125 37.796875 11.71875 
Q 41.84375 16.609375 42.28125 25.203125 
L 15.828125 25.203125 
L 15.828125 32.234375 
L 42.046875 32.234375 
Q 41.15625 38.921875 37.796875 42.921875 
Q 33.203125 48.390625 24.8125 48.390625 
Q 20.265625 48.390625 16.671875 46.96875 
Q 13.09375 45.5625 9.515625 42.390625 
L 9.515625 51.8125 
Q 13.328125 53.953125 17.078125 54.96875 
Q 20.84375 56 24.8125 56 
Q 37.5 56 44.65625 48.375 
Q 51.8125 40.765625 51.8125 27.296875 
Q 51.8125 13.8125 44.625 6.203125 
Q 37.5 -1.421875 24.8125 -1.421875 
Q 20.796875 -1.421875 16.96875 -0.359375 
Q 13.140625 0.6875 9.515625 2.78125 
z
" id="DejaVuSansMono-1101"/>
      <path d="M 18.3125 6.890625 
L 18.3125 -20.796875 
L 9.28125 -20.796875 
L 9.28125 54.6875 
L 18.3125 54.6875 
L 18.3125 47.703125 
Q 20.5625 51.765625 24.296875 53.875 
Q 28.03125 56 32.90625 56 
Q 42.828125 56 48.46875 48.328125 
Q 54.109375 40.671875 54.109375 27.09375 
Q 54.109375 13.765625 48.4375 6.171875 
Q 42.78125 -1.421875 32.90625 -1.421875 
Q 27.9375 -1.421875 24.1875 0.703125 
Q 20.453125 2.828125 18.3125 6.890625 
z
M 44.671875 27.296875 
Q 44.671875 37.75 41.375 43.0625 
Q 38.09375 48.390625 31.59375 48.390625 
Q 25.046875 48.390625 21.671875 43.046875 
Q 18.3125 37.703125 18.3125 27.296875 
Q 18.3125 16.9375 21.671875 11.5625 
Q 25.046875 6.203125 31.59375 6.203125 
Q 38.09375 6.203125 41.375 11.515625 
Q 44.671875 16.84375 44.671875 27.296875 
z
" id="DejaVuSansMono-1088"/>
      <path d="M 21.53125 47.359375 
L 21.53125 0 
L 12.546875 0 
L 12.546875 54.6875 
L 49.265625 54.6875 
L 49.265625 47.359375 
z
" id="DejaVuSansMono-1075"/>
      <path d="M 42.28125 39.5 
L 18.5 0 
L 9.515625 0 
L 9.515625 54.6875 
L 18.5 54.6875 
L 18.5 15.1875 
L 42.28125 54.6875 
L 51.265625 54.6875 
L 51.265625 0 
L 42.28125 0 
z
" id="DejaVuSansMono-1080"/>
      <path d="M 11.53125 54.6875 
L 20.796875 54.6875 
L 20.796875 31.984375 
L 44.390625 54.6875 
L 55.328125 54.6875 
L 33.796875 34.078125 
L 58.6875 0 
L 47.703125 0 
L 27.484375 28.21875 
L 20.796875 21.921875 
L 20.796875 0 
L 11.53125 0 
z
" id="DejaVuSansMono-1082"/>
      <path d="M 14.796875 78.515625 
L 20.609375 78.515625 
Q 21.140625 74.8125 23.484375 73 
Q 25.828125 71.1875 30.078125 71.1875 
Q 34.234375 71.1875 36.578125 73 
Q 38.921875 74.8125 39.59375 78.515625 
L 45.40625 78.515625 
Q 44.875 71.53125 41.015625 68.015625 
Q 37.15625 64.5 30.078125 64.5 
Q 23.046875 64.5 19.1875 68.015625 
Q 15.328125 71.53125 14.796875 78.515625 
z
M 42.28125 39.5 
L 18.5 0 
L 9.515625 0 
L 9.515625 54.6875 
L 18.5 54.6875 
L 18.5 15.1875 
L 42.28125 54.6875 
L 51.265625 54.6875 
L 51.265625 0 
L 42.28125 0 
z
" id="DejaVuSansMono-1081"/>
      <path d="M 42.28125 47.359375 
L 18.5 47.359375 
L 18.5 0 
L 9.515625 0 
L 9.515625 54.6875 
L 51.265625 54.6875 
L 51.265625 0 
L 42.28125 0 
z
" id="DejaVuSansMono-1087"/>
      <path d="M 19.1875 25.140625 
L 19.1875 7.328125 
L 30.859375 7.328125 
Q 35.5 7.328125 37.96875 10.0625 
Q 40.4375 12.796875 40.4375 16.703125 
Q 40.4375 20.5625 38.359375 22.84375 
Q 36.28125 25.140625 31.0625 25.140625 
z
M 19.1875 47.359375 
L 19.1875 32.46875 
L 30.328125 32.46875 
Q 34.46875 32.46875 36.515625 34.546875 
Q 38.578125 36.625 38.578125 39.890625 
Q 38.578125 43.171875 36.515625 45.265625 
Q 34.46875 47.359375 30.28125 47.359375 
z
M 10.203125 54.6875 
L 29.59375 54.6875 
Q 37.890625 54.6875 42.765625 50.921875 
Q 47.65625 47.171875 47.65625 41.703125 
Q 47.65625 36.28125 45.328125 33.125 
Q 43.015625 29.984375 38.1875 29.296875 
Q 44.671875 28.078125 47.328125 24.75 
Q 50 21.4375 50 15.71875 
Q 50 8.203125 44.890625 4.09375 
Q 39.796875 0 30.375 0 
L 10.203125 0 
z
" id="DejaVuSansMono-1074"/>
      <path d="M 54.59375 54.6875 
L 35.015625 28.515625 
L 56.5 0 
L 46.09375 0 
L 30.078125 21.921875 
L 14.109375 0 
L 3.71875 0 
L 25.203125 28.515625 
L 5.609375 54.6875 
L 15.578125 54.6875 
L 30.078125 34.90625 
L 44.484375 54.6875 
z
" id="DejaVuSansMono-1093"/>
      <path d="M 51.8125 2.78125 
Q 48.1875 0.6875 44.359375 -0.359375 
Q 40.53125 -1.421875 36.53125 -1.421875 
Q 23.828125 -1.421875 16.671875 6.1875 
Q 9.515625 13.8125 9.515625 27.296875 
Q 9.515625 40.765625 16.671875 48.375 
Q 23.828125 56 36.53125 56 
Q 40.484375 56 44.234375 54.96875 
Q 48 53.953125 51.8125 51.8125 
L 51.8125 42.390625 
Q 48.25 45.5625 44.65625 46.96875 
Q 41.0625 48.390625 36.53125 48.390625 
Q 28.078125 48.390625 23.53125 42.921875 
Q 19 37.453125 19 27.296875 
Q 19 17.1875 23.5625 11.6875 
Q 28.125 6.203125 36.53125 6.203125 
Q 41.21875 6.203125 44.921875 7.640625 
Q 48.640625 9.078125 51.8125 12.109375 
z
" id="DejaVuSansMono-1089"/>
      <path d="M 35.15625 47.359375 
L 35.15625 0 
L 26.171875 0 
L 26.171875 47.359375 
L 10.984375 47.359375 
L 10.984375 54.6875 
L 50.34375 54.6875 
L 50.34375 47.359375 
z
" id="DejaVuSansMono-1090"/>
      <path d="M 38.234375 29.640625 
Q 44.671875 28.515625 48.3125 24.90625 
Q 51.953125 21.296875 51.953125 15.96875 
Q 51.953125 7.859375 45.1875 3.390625 
Q 38.421875 -1.078125 25.984375 -1.078125 
Q 21.828125 -1.078125 17.375 -0.390625 
Q 12.9375 0.296875 8.25 1.65625 
L 8.25 10.109375 
Q 11.96875 8.453125 16.40625 7.59375 
Q 20.84375 6.734375 25.734375 6.734375 
Q 34.1875 6.734375 38.59375 9.296875 
Q 43.015625 11.859375 43.015625 16.65625 
Q 43.015625 20.609375 38.890625 23.296875 
Q 34.765625 25.984375 27.4375 25.984375 
L 19.734375 25.984375 
L 19.734375 33.015625 
L 27.78125 33.015625 
Q 34.421875 33.015625 37.9375 35.125 
Q 41.453125 37.25 41.453125 40.234375 
Q 41.453125 43.84375 37.8125 45.9375 
Q 34.1875 48.046875 27.4375 48.046875 
Q 23.78125 48.046875 19.546875 47.4375 
Q 15.328125 46.828125 10.25 45.515625 
L 10.25 53.65625 
Q 15.375 54.828125 19.84375 55.40625 
Q 24.3125 56 28.21875 56 
Q 38.484375 56 44.4375 52.140625 
Q 50.390625 48.296875 50.390625 41.75 
Q 50.390625 37.15625 47.21875 34 
Q 44.046875 30.859375 38.234375 29.640625 
z
" id="DejaVuSansMono-1079"/>
      <path d="M 49.171875 7.328125 
L 55.078125 7.328125 
L 55.078125 -13.96875 
L 47.75 -13.96875 
L 47.75 0 
L 12.453125 0 
L 12.453125 -13.96875 
L 5.125 -13.96875 
L 5.125 7.328125 
L 8.40625 7.328125 
Q 11.078125 7.328125 11.859375 18.40625 
Q 12.640625 29.5 12.640625 34.375 
L 12.640625 54.6875 
L 49.171875 54.6875 
z
M 40.140625 7.328125 
L 40.140625 47.359375 
L 21.578125 47.359375 
L 21.578125 34.1875 
Q 21.578125 29.296875 20.609375 17.234375 
Q 20.21875 10.203125 19.875 9.390625 
Q 19.53125 8.59375 19.53125 7.953125 
Q 19.53125 7.328125 21.1875 7.328125 
z
" id="DejaVuSansMono-1076"/>
     </defs>
     <use xlink:href="#DejaVuSansMono-1055"/>
     <use x="60.205078" xlink:href="#DejaVuSansMono-1086"/>
     <use x="120.410156" xlink:href="#DejaVuSansMono-1083"/>
     <use x="180.615234" xlink:href="#DejaVuSansMono-1091"/>
     <use x="240.820312" xlink:href="#DejaVuSansMono-1095"/>
     <use x="301.025391" xlink:href="#DejaVuSansMono-1077"/>
     <use x="361.230469" xlink:href="#DejaVuSansMono-1085"/>
     <use x="421.435547" xlink:href="#DejaVuSansMono-1085"/>
     <use x="481.640625" xlink:href="#DejaVuSansMono-1072"/>
     <use x="541.845703" xlink:href="#DejaVuSansMono-1103"/>
     <use x="602.050781" xlink:href="#DejaVuSansMono-32"/>
     <use x="662.255859" xlink:href="#DejaVuSansMono-1101"/>
     <use x="722.460938" xlink:href="#DejaVuSansMono-1085"/>
     <use x="782.666016" xlink:href="#DejaVuSansMono-1077"/>
     <use x="842.871094" xlink:href="#DejaVuSansMono-1088"/>
     <use x="903.076172" xlink:href="#DejaVuSansMono-1075"/>
     <use x="963.28125" xlink:href="#DejaVuSansMono-1080"/>
     <use x="1023.486328" xlink:href="#DejaVuSansMono-1103"/>
     <use x="1083.691406" xlink:href="#DejaVuSansMono-32"/>
     <use x="1143.896484" xlink:href="#DejaVuSansMono-1085"/>
     <use x="1204.101562" xlink:href="#DejaVuSansMono-1072"/>
     <use x="1264.306641" xlink:href="#DejaVuSansMono-32"/>
     <use x="1324.511719" xlink:href="#DejaVuSansMono-1085"/>
     <use x="1384.716797" xlink:href="#DejaVuSansMono-1072"/>
     <use x="1444.921875" xlink:href="#DejaVuSansMono-1082"/>
     <use x="1505.126953" xlink:href="#DejaVuSansMono-1083"/>
     <use x="1565.332031" xlink:href="#DejaVuSansMono-1086"/>
     <use x="1625.537109" xlink:href="#DejaVuSansMono-1085"/>
     <use x="1685.742188" xlink:href="#DejaVuSansMono-1085"/>
     <use x="1745.947266" xlink:href="#DejaVuSansMono-1086"/>
     <use x="1806.152344" xlink:href="#DejaVuSansMono-1081"/>
     <use x="1866.357422" xlink:href="#DejaVuSansMono-32"/>
     <use x="1926.5625" xlink:href="#DejaVuSansMono-1087"/>
     <use x="1986.767578" xlink:href="#DejaVuSansMono-1086"/>
     <use x="2046.972656" xlink:href="#DejaVuSansMono-1074"/>
     <use x="2107.177734" xlink:href="#DejaVuSansMono-1077"/>
     <use x="2167.382812" xlink:href="#DejaVuSansMono-1088"/>
     <use x="2227.587891" xlink:href="#DejaVuSansMono-1093"/>
     <use x="2287.792969" xlink:href="#DejaVuSansMono-1085"/>
     <use x="2347.998047" xlink:href="#DejaVuSansMono-1086"/>
     <use x="2408.203125" xlink:href="#DejaVuSansMono-1089"/>
     <use x="2468.408203" xlink:href="#DejaVuSansMono-1090"/>
     <use x="2528.613281" xlink:href="#DejaVuSansMono-1080"/>
     <use x="2588.818359" xlink:href="#DejaVuSansMono-32"/>
     <use x="2649.023438" xlink:href="#DejaVuSansMono-1079"/>
     <use x="2709.228516" xlink:href="#DejaVuSansMono-1072"/>
     <use x="2769.433594" xlink:href="#DejaVuSansMono-32"/>
     <use x="2829.638672" xlink:href="#DejaVuSansMono-1075"/>
     <use x="2889.84375" xlink:href="#DejaVuSansMono-1086"/>
     <use x="2950.048828" xlink:href="#DejaVuSansMono-1076"/>
    </g>
   </g>
  </g>
 </g>
 <defs>
  <clipPath id="p1ae963c55b">
   <rect height="332.64" width="558" x="50.965625" y="27.407031"/>
  </clipPath>
 </defs>
</svg>
